<?xml version="1.0" encoding="UTF-8"?>
<svg id="Calque_1" data-name="Calque 1" xmlns="http://www.w3.org/2000/svg" viewBox="0 0 1481.65 1294.71">
  <defs>
    <style>
      .cls-1 {
        fill: #ff4e00;
      }
    </style>
  </defs>
  <path class="cls-1" d="M789.87,42.43c-334.09,0-604.92,270.83-604.92,604.92s270.83,604.92,604.92,604.92,604.92-270.83,604.92-604.92S1123.96,42.43,789.87,42.43ZM1103.77,662.25c-26.39,1.3-48.12,5.11-65.11,11.37-16.99,6.28-34.36,17.99-52.08,35.17-17.71,17.17-37.93,43.05-60.63,77.59l-48.64,73.56c-87.89,132.91-257.6,219.88-447.4,229.27l251.41-378.48c25.39-40.54,63.04-74.15,112.86-100.86,49.85-26.7,84.33-42.11,185.67-45.55,13.69.07,27.37.13,41.06.21-32.93-37.99-72.9-78.11-121.41-118.06-163.55-134.71-346.68-203.77-473.4-239.88,219.22-11.45,430.68,66.16,560.61,205.79l285.45,306.72c-61.53-40.4-117.67-59.37-168.37-56.86ZM816.1,434.15c11.65-4.01,25.24.2,30.32,9.39,5.1,9.18-.23,19.88-11.9,23.9-11.65,4.01-25.24-.2-30.32-9.38-5.1-9.19.23-19.9,11.9-23.91Z"/>
</svg>