<?xml version="1.0" encoding="UTF-8"?>
<svg id="Calque_1" data-name="Calque 1" xmlns="http://www.w3.org/2000/svg" viewBox="0 0 5000 1294.71">
  <defs>
    <style>
      .cls-1 {
        fill: #021bc9;
      }

      .cls-2 {
        fill: #ff4e00;
      }
    </style>
  </defs>
  <g>
    <path class="cls-1" d="M1838.18,759.35l114.14-103.82c41.13-38.03,58.61-76.06,65.81-97.65,13.37-44.2,43.19-61.67,75.07-61.67h143.96c30.85,0,20.57,17.47-43.19,51.39-59.64,31.87-118.25,71.95-161.44,107.93l-33.93,28.78,141.91,189.13c27.76,37,67.87,76.06,99.75,101.76,47.3,40.09,50.39,56.53,19.54,56.53h-243.71c-31.88,0-52.44-16.45-64.78-56.53-7.2-25.7-26.74-66.81-54.5-101.76l-50.39-62.7-8.23,6.17v56.53c0,37,10.28,76.06,22.62,101.76,17.48,40.09,8.23,56.53-22.62,56.53h-203.61c-30.85,0-41.13-16.45-22.62-56.53,11.31-25.7,22.62-64.76,22.62-101.76v-400.88c0-37,0-74.01-30.85-103.82-30.85-28.78-20.57-53.45,48.33-54.48,38.05-1.03,79.18-9.25,119.28-42.14,38.05-30.84,66.84-33.92,66.84,41.12v446.11Z"/>
    <path class="cls-2" d="M2549.75,873.45c0,37,10.28,76.06,22.62,101.76,17.48,40.09,8.23,56.53-22.62,56.53h-203.61c-30.85,0-41.13-16.45-22.62-56.53,11.31-25.7,22.62-64.76,22.62-101.76v-163.44c0-37,0-74.01-30.85-103.82-30.85-27.75-20.57-52.42,48.33-53.45,38.05-1.03,79.18-10.28,119.28-43.17,38.05-30.84,66.84-32.89,66.84,42.14v321.73ZM2423.27,257.74c66.84,0,119.28,49.34,119.28,112.04s-52.44,111.01-119.28,111.01-120.31-49.34-120.31-111.01,53.47-112.04,120.31-112.04Z"/>
    <path class="cls-2" d="M2871.6,873.45c0,37,10.28,76.06,22.62,101.76,17.48,40.09,8.23,56.53-22.62,56.53h-203.61c-30.85,0-41.13-16.45-22.62-56.53,11.31-25.7,22.62-64.76,22.62-101.76v-163.44c0-37,0-74.01-30.85-103.82-30.85-27.75-20.57-52.42,48.33-53.45,38.05-1.03,79.18-10.28,119.28-43.17,38.05-30.84,66.84-32.89,66.84,42.14v321.73ZM2745.12,257.74c66.84,0,119.28,49.34,119.28,112.04s-52.44,111.01-119.28,111.01-120.31-49.34-120.31-111.01,53.47-112.04,120.31-112.04Z"/>
    <path class="cls-1" d="M3193.44,570.22c33.93-55.51,79.18-84.29,140.88-84.29,83.29,0,138.82,51.4,165.56,123.35,35.99-81.2,86.38-123.35,161.45-123.35,124.43,0,185.1,115.12,185.1,238.47v149.05c0,37,10.28,76.06,22.62,101.76,18.51,40.09,8.23,56.53-22.62,56.53h-203.6c-30.85,0-40.1-16.45-22.62-56.53,12.34-25.7,22.62-64.76,22.62-101.76v-123.35c0-107.93-29.82-159.32-60.67-159.32-44.22,0-62.73,99.71-62.73,159.32v123.35c0,37,11.31,76.06,22.62,101.76,18.51,40.09,9.25,56.53-22.62,56.53h-202.58c-31.88,0-41.13-16.45-22.62-56.53,11.31-25.7,22.62-64.76,22.62-101.76v-123.35c0-107.93-30.85-159.32-61.7-159.32-44.22,0-61.7,99.71-61.7,159.32v123.35c0,37,10.28,76.06,22.62,101.76,17.48,40.09,8.23,56.53-22.62,56.53h-203.61c-30.85,0-41.13-16.45-22.62-56.53,11.31-25.7,22.62-64.76,22.62-101.76v-163.44c0-37,0-74.01-30.85-103.82-30.85-27.75-20.57-52.42,48.33-53.45,38.05-1.03,79.18-10.28,119.28-43.17,38.05-30.84,66.84-32.89,66.84,42.14v18.5Z"/>
    <path class="cls-1" d="M4164.14,873.45c0,37,10.28,76.06,22.62,101.76,17.48,40.09,8.23,56.53-22.62,56.53h-203.61c-30.85,0-41.13-16.45-22.62-56.53,11.31-25.7,22.62-64.76,22.62-101.76v-163.44c0-37,0-74.01-30.85-103.82-30.85-27.75-20.57-52.42,48.33-53.45,38.05-1.03,79.18-10.28,119.28-43.17,38.05-30.84,66.84-32.89,66.84,42.14v321.73ZM4037.66,257.74c66.84,0,119.28,49.34,119.28,112.04s-52.44,111.01-119.28,111.01-120.31-49.34-120.31-111.01,53.47-112.04,120.31-112.04Z"/>
    <path class="cls-1" d="M4404.74,1043.05c-100.77,0-164.53-51.4-164.53-139.79,0-183.99,279.7-134.65,298.21-273.42-8.23-47.28-26.74-90.45-57.59-90.45-16.45,0-42.16,14.39-27.76,75.04,27.76,113.07-69.92,128.49-131.62,103.82-64.78-26.73-71.98-93.54-54.5-133.63,24.68-57.56,109-98.68,227.26-98.68s250.91,40.09,250.91,183.99v203.52c0,65.79,18.51,66.81,32.91,53.45,29.82-25.7,61.7,25.7,8.23,78.12-21.59,20.56-52.44,38.03-99.75,38.03-61.7,0-109-28.78-131.62-76.06-27.76,48.31-75.07,76.06-150.13,76.06ZM4448.96,886.81c0,57.56,20.57,69.9,40.1,69.9,40.1,0,52.44-54.48,52.44-95.6v-136.71c-35.99,49.34-92.55,65.79-92.55,162.41Z"/>
  </g>
  <path class="cls-2" d="M789.87,42.43c-334.09,0-604.92,270.83-604.92,604.92s270.83,604.92,604.92,604.92,604.92-270.83,604.92-604.92S1123.96,42.43,789.87,42.43ZM1103.77,662.25c-26.39,1.3-48.12,5.11-65.11,11.37-16.99,6.28-34.36,17.99-52.08,35.17-17.71,17.17-37.93,43.05-60.63,77.59l-48.64,73.56c-87.89,132.91-257.6,219.88-447.4,229.27l251.41-378.48c25.39-40.54,63.04-74.15,112.86-100.86,49.85-26.7,84.33-42.11,185.67-45.55,13.69.07,27.37.13,41.06.21-32.93-37.99-72.9-78.11-121.41-118.06-163.55-134.71-346.68-203.77-473.4-239.88,219.22-11.45,430.68,66.16,560.61,205.79l285.45,306.72c-61.53-40.4-117.67-59.37-168.37-56.86ZM816.1,434.15c11.65-4.01,25.24.2,30.32,9.39,5.1,9.18-.23,19.88-11.9,23.9-11.65,4.01-25.24-.2-30.32-9.38-5.1-9.19.23-19.9,11.9-23.91Z"/>
</svg>